<?xml version="1.0" encoding="UTF-8"?>
<svg version="1.1" viewBox="0 0 2048 2038" width="1280" height="1280" xmlns="http://www.w3.org/2000/svg">
<path transform="translate(0)" d="m0 0h764v2038h-764z" fill="#6DB0E1"/>
<path transform="translate(1288,4)" d="m0 0h760v2030h-760l-1-1v-2028z" fill="#6DB0E1"/>
<path transform="translate(1287,511)" d="m0 0h254l252 1-2 4-248 248 251 1v254l-140 1 19 4 18 6 19 9 14 9 13 10 13 12 9 11 9 12 9 16 7 15 6 19 4 21 1 20-114 1 9 16 8 20 5 19 2 12 1 11v10h-165l1 505 252-252h89l2 23 5 24 7 19 12 23 12 16 11 12 8 8 16 12 21 12 21 8 19 5 15 2 16 1v343h-760l-1-1z" fill="#6DB0E1"/>
<path transform="translate(0)" d="m0 0h764v675h-16l-19-3-21-6-16-7-17-9-16-12-12-11-9-9-12-16-10-17-7-16-5-15-4-19-1-7v-18h-89l-1-1-1-252-252 252h-90l-3-27-5-21-7-19-10-19-9-13-9-11-15-15-16-12-21-12-21-8-20-5-15-2-15-1z" fill="#F16485"/>
<path transform="translate(1287,1361)" d="m0 0h9l24 3 22 6 21 9 15 9 12 9 14 12 11 12 12 17 9 16 7 17 6 21 3 21v13h89l1 252 252-252h89l2 23 5 24 7 19 12 23 12 16 11 12 8 8 16 12 21 12 21 8 19 5 15 2 16 1v343h-760l-1-1z" fill="#F16484"/>
<path transform="translate(508,256)" d="m0 0h1l1 253 89 1 1 18 4 22 5 16 7 17 9 16 12 16 9 10 9 9 17 13 16 9 17 8 20 6 15 3 24 2v105l-3 27-5 23-10 30-8 18-10 18-10 15-10 13-11 13-18 18-11 9-19 14-21 12-21 10-22 8-24 6-17 3-22 2h-102v-166l-50 1h-115l2 26 6 25 8 20 10 18 12 16 11 12 7 7 17 13 16 9 17 8 20 6 22 4v1h-149l-254-254v-421h15l20 3 21 6 21 9 18 11 16 13 16 16 12 16 10 18 7 16 6 20 3 17 1 11v9l90-1z" fill="#262C5E"/>
<path transform="translate(1794,765)" d="m0 0h254v926h-16l-19-3-15-4-16-6-16-8-14-9-14-11-15-15-13-17-9-16-7-15-6-18-4-20-1-9v-14l-89 1-252 252h-1v-506h165l-3-28-5-21-8-21-9-17-1-2h115l-3-27-5-21-7-19-11-21-10-14-9-10-7-8-11-9-14-10-16-9-19-8-23-6-14-2v-1h148z" fill="#262C5E"/>
<path transform="translate(763,780)" d="m0 0h1v749h-255l-252-1 6-7 246-246v-1l-254-1v-254l141-1-23-5-19-7-23-12-16-12-12-11-8-8-13-17-12-21-8-20-6-25-1-8v-18l115-1h50v166l102-1 29-3 27-6 24-8 18-8 21-11 12-8 16-12 14-12 17-17 11-14 11-15 11-19 8-16 8-20 7-23 5-26z" fill="#F16485"/>
<path transform="translate(0,1783)" d="m0 0h764v255h-764z" fill="#6DB0E1"/>
<path transform="translate(1288,4)" d="m0 0h760v254l-761 1v-254z" fill="#6DB0E1"/>
<path transform="translate(1287,511)" d="m0 0h254l252 1-2 4-248 248 251 1v254l-140 1 19 4 18 6 19 9 14 9 13 10 13 12 9 11 9 12 9 16 7 15 6 19 4 21 1 20h-166v-50l1-115h-89l-1-254-253-253z" fill="#FEFEFE"/>
<path transform="translate(509,509)" d="m0 0 90 1 1 18 4 22 5 16 7 17 9 16 12 16 9 10 9 9 17 13 16 9 17 8 20 6 15 3 24 2v105l-3 27-5 23-10 30-8 18-10 18-10 15-10 13-11 13-18 18-11 9-19 14-21 12-21 10-22 8-24 6-17 3-22 2h-102v-166l-50 1h-115v-1h114l-9-16-8-19-6-23-2-15v-16h165z" fill="#6DB0E1"/>
<path transform="translate(1287,512)" d="m0 0 7 6 247 247v254l-34 3-23 4-22 6-21 8-21 10-20 12-16 12-13 11-13 12-7 8-11 13-13 19-12 21-9 20-10 30-5 24-3 29h-1z" fill="#F16485"/>
<path transform="translate(1288,258)" d="m0 0h341l1 4 2 22 4 19 7 20 12 23 12 16 9 10 12 12 15 11 17 10 19 8 21 6 22 3 12 1v89h-392l-115-1v-252z" fill="#F16485"/>
<path transform="translate(0,765)" d="m0 0 7 6 248 248v255h-255z" fill="#F16485"/>
<path transform="translate(1794,765)" d="m0 0h254v507l-7-6-247-247z" fill="#F16485"/>
<path transform="translate(0,1783)" d="m0 0h420v17l-3 19-6 21-8 18-9 16-9 12-9 10-7 8-11 9-12 9-16 9-15 7-19 6-14 3-18 2h-9v89h-255z" fill="#fff"/>
<path transform="translate(370,853)" d="m0 0h50v166h89v254h-254v-254l141-1-23-5-19-7-23-12-16-12-12-11-8-8-13-17-12-21-8-20-6-25-1-8v-18z" fill="#FEFEFE"/>
<path transform="translate(1794,4)" d="m0 0h254v254h-419l1-19 4-22 7-21 9-19 12-18 11-13 14-14 16-12 16-9 15-7 19-6 14-3 17-2h10z" fill="#fff"/>
<path transform="translate(0,255)" d="m0 0h509l-6 7-247 247h-90l-3-27-5-21-7-19-10-19-9-13-9-11-15-15-16-12-21-12-21-8-20-5-15-2-15-1z" fill="#FEFEFE"/>
<path transform="translate(1794,1526)" d="m0 0h89l2 23 5 24 7 19 12 23 12 16 11 12 8 8 16 12 21 12 21 8 19 5 15 2 16 1v89h-507l6-7z" fill="#FEFEFE"/>
<path transform="translate(1287,511)" d="m0 0h254l252 1-2 4-248 248 251 1v1h-253l-254-254z" fill="#FDFDFE"/>
<path transform="translate(509,1275)" d="m0 0 4 2 251 251v1h-255l-252-1 6-7z" fill="#fff"/>
<path transform="translate(510,1529)" d="m0 0h254v254h-254z" fill="#F16485"/>
<path transform="translate(510,764)" d="m0 0h254v16l-3 27-5 23-10 30-8 18-10 18-10 15-10 13-11 13-18 18-11 9-19 14-21 12-21 10-22 8-24 6-17 3-22 2h-101v-114l5 2 16 8 15 6 18 5 21 3 14 1z" fill="#262C5E"/>
<path transform="translate(510,255)" d="m0 0h89v165h165v255h-16l-19-3-21-6-16-7-17-9-16-12-12-11-9-9-12-16-10-17-7-16-5-15-4-19-1-7v-18h-89l-1-1v-165z" fill="#F16485"/>
<path transform="translate(1528,1019)" d="m0 0h101v114l-24-12-24-8-15-3-25-2v164l-1 1h-252l-1-1v-11l3-29 5-24 10-30 9-20 10-18 8-12 9-12 11-13 13-14 8-7 13-11 19-13 21-12 22-10 24-8 22-5 21-3z" fill="#262C5E"/>
<path transform="translate(0,344)" d="m0 0h15l20 3 21 6 21 9 18 11 16 13 16 16 12 16 10 18 7 16 6 20 3 17 1 11v9h89l-6 7-248 248h-1z" fill="#F16921"/>
<path transform="translate(2047,1273)" d="m0 0h1v418h-16l-19-3-15-4-16-6-16-8-14-9-14-11-15-15-13-17-9-16-7-15-6-18-4-20-1-9v-14h-88l6-7z" fill="#F16921"/>
<path transform="translate(1287,1361)" d="m0 0h9l24 3 22 6 21 9 15 9 12 9 14 12 11 12 12 17 9 16 7 17 6 21 3 21v13h89v253h-1v-88h-14l-20-3-21-6-19-8-14-8v-51h-165z" fill="#F16485"/>
<path transform="translate(255,1528)" d="m0 0h254l1 1v254h-90l-2-25-4-19-7-20-8-16-7-12-10-13-9-10-10-10-13-10-13-8-16-8-15-6-20-5-14-2-17-1z" fill="#F16485"/>
<path transform="translate(0,1528)" d="m0 0h89l3 28 5 21 7 19 10 19 12 17 12 13 9 9 16 12 16 9 15 7 19 6 20 4 22 2v89h-255z" fill="#F16921"/>
<path transform="translate(1794,258)" d="m0 0h254v254h-89l-2-23-4-20-7-21-8-16-9-15-9-11-9-10-8-8-17-13-16-9-15-7-18-6-20-4-23-2z" fill="#F16921"/>
<path transform="translate(1541,258)" d="m0 0h88l1 4 2 22 4 19 7 20 12 23 12 16 9 10 12 12 15 11 17 10 19 8 21 6 22 3 12 1v89h-253z" fill="#F16485"/>
<path transform="translate(378,1041)" d="m0 0h9l21 3 17 6 15 8 10 8 10 9 10 13 7 12 7 19 3 16v22l-3 17-6 16-7 13-9 12-13 13-13 9-14 7-16 5-11 2h-26l-18-4-13-5-13-7-13-10-11-11-9-13-8-16-5-16-2-14v-17l2-14 5-16 8-16 9-13 15-15 15-10 16-7 14-4z" fill="#6DB0E1"/>
<path transform="translate(113,1042)" d="m0 0h28l18 4 15 6 14 8 14 12 8 9 10 15 7 16 4 16 1 7v23l-3 16-6 16-8 15-9 11-12 12-13 9-17 8-13 4-12 2h-23l-20-4-19-8-12-8-13-11-10-12-8-13-6-14-4-15-1-6v-28l4-17 5-13 7-13 10-13 10-10 14-10 17-8 17-5z" fill="#262C5E"/>
<path transform="translate(115,23)" d="m0 0h25l15 3 12 4 16 8 12 9 9 8 11 14 8 14 6 17 3 16v23l-3 16-7 19-9 15-9 10-5 5-10 9-15 9-15 6-19 4h-25l-15-3-15-5-13-7-11-8-12-11-10-13-9-17-5-16-2-11v-27l4-18 5-13 9-16 11-13 11-10 14-9 16-7 15-4z" fill="#fff"/>
<path transform="translate(1654,788)" d="m0 0h27l18 4 15 6 12 7 10 8 9 8 10 13 7 12 7 19 3 17v21l-4 20-6 15-8 14-11 13-7 7-14 10-16 8-17 5-15 2h-13l-19-3-15-5-14-7-11-8-10-9-8-9-9-14-7-16-4-16-1-8v-20l3-17 6-16 8-15 8-10 8-9 13-10 16-9 18-6z" fill="#6DB0E1"/>
<path transform="translate(1909,788)" d="m0 0h24l16 3 16 6 13 7 13 10 10 10 10 14 8 16 4 13 2 11 1 15-2 20-5 17-8 16-9 13-15 15-15 10-16 7-14 4-20 2-21-2-15-4-14-6-15-10-12-11-8-9-8-13-6-13-4-13-2-12v-24l3-15 5-15 7-13 8-11 11-12 12-9 16-9 15-5z" fill="#262C5E"/>
<path transform="translate(1917,1802)" d="m0 0h9l21 3 17 6 13 7 12 9 14 14 10 15 7 16 4 14 2 20-2 21-4 15-9 19-8 11-9 10-9 8-14 9-16 7-16 4-7 1h-21l-17-3-19-7-15-9-15-13-11-14-8-14-6-17-3-16v-23l3-16 6-16 7-13 10-13 11-11 13-9 16-8 17-5z" fill="#fff"/>
<path transform="translate(510,1274)" d="m0 0h254v254l-7-6-247-247z" fill="#F26A21"/>
<path transform="translate(255,1274)" d="m0 0h253l-6 7-246 246h-1z" fill="#262C5E"/>
<path transform="translate(1287,512)" d="m0 0 7 6 246 246v1h-253z" fill="#F26A21"/>
<path transform="translate(1793,513)" d="m0 0h1v252h-252l6-7z" fill="#262C5E"/>
<path transform="translate(0)" d="m0 0h255v254l-1 1h-254zm115 23-16 3-16 6-16 9-14 12-9 10-9 14-6 13-4 13-2 11v27l4 18 5 13 9 16 12 14 10 9 16 10 14 6 15 4 7 1h25l19-4 19-8 12-8 13-11 9-11 7-11 6-12 5-16 2-12v-23l-3-16-6-17-8-14-8-10-7-8-14-11-14-8-13-5-12-3-7-1z" fill="#F16921"/>
<path transform="translate(0,1019)" d="m0 0h255v255h-255zm113 23-17 4-13 5-13 7-13 10-10 10-10 14-8 17-5 17-1 6v28l4 18 6 15 7 12 7 9 9 10 13 10 14 8 17 6 16 3h23l16-3 16-6 15-8 11-9 12-12 9-13 8-17 4-13 2-12v-23l-4-20-7-17-9-14-9-11-11-10-14-9-16-7-15-4-6-1z" fill="#F16922"/>
<path transform="translate(1794,1780)" d="m0 0h254v254h-253l-1-1zm123 22-17 2-17 5-16 8-14 10-12 12-10 14-8 17-4 13-2 12v23l4 20 8 19 8 12 12 14 14 11 14 8 21 7 13 2h21l20-4 15-6 14-8 13-11 7-7 10-14 9-19 4-15 2-21-2-20-5-17-8-16-9-13-15-15-15-10-13-6-17-5-16-2z" fill="#F16921"/>
<path transform="translate(1794,765)" d="m0 0h254v254h-254zm115 23-19 4-15 6-15 9-13 11-9 10-10 16-6 14-4 15-1 7v24l3 16 6 16 7 13 10 13 10 10 14 10 16 8 13 4 11 2 15 1 20-2 17-5 16-8 13-9 15-15 10-15 7-16 4-14 2-20-2-21-4-15-6-14-10-15-11-12-9-8-13-8-13-6-13-4-12-2z" fill="#F16922"/>
<path transform="translate(1288,258)" d="m0 0h253v253l-1 1h-138l-115-1v-252zm121 22-21 3-17 6-13 7-12 9-8 7-11 14-8 14-5 12-4 17-1 10v12l2 15 5 17 8 16 9 13 14 14 13 9 16 8 13 4 11 2h28l18-4 16-7 12-7 11-9 9-9 10-14 9-19 4-15 1-6v-28l-4-18-7-17-7-11-8-10-11-11-13-9-16-8-17-5-16-2z" fill="#262C5E"/>
<path transform="translate(510,1529)" d="m0 0h254v254h-254zm115 22-16 3-16 6-13 7-12 9-13 13-10 15-7 15-4 13-2 12v24l4 19 6 15 8 14 11 13 12 11 13 8 12 6 17 5 14 2h16l18-3 15-5 17-9 10-8 9-8 11-14 9-17 5-15 2-9 1-9v-17l-3-18-7-19-9-15-9-11-8-8-14-10-16-8-15-5-12-2z" fill="#262C5E"/>
<path transform="translate(763,780)" d="m0 0h1v473h-1l-3-24-6-26-9-26-14-29-12-19-10-13-9-11-14-15-10-9-15-12-15-10-17-10-21-10-25-9-25-6-20-3-16-2v-1l29-3 27-6 24-8 18-8 21-11 12-8 16-12 14-12 17-17 11-14 11-15 11-19 8-16 8-20 7-23 5-26z" fill="#FDFEFE"/>
<path transform="translate(1287,783)" d="m0 0h1l3 25 5 23 10 30 10 22 13 22 14 19 13 15 15 15 11 9 16 12 20 12 16 8 19 8 18 6 21 5 20 3 16 2v1l-21 2-23 4-22 6-21 8-21 10-20 12-16 12-13 11-13 12-7 8-11 13-13 19-12 21-9 20-10 30-5 24-3 29h-1z" fill="#FDFEFE"/>
<path transform="translate(509,1376)" d="m0 0 7 6 145 145 103 1v1h-255l-151-1 6-7z" fill="#6DB0E1"/>
<path transform="translate(0,344)" d="m0 0h15l20 3 21 6 21 9 18 11 16 13 16 16 12 16 10 18 7 16 6 20 3 17 1 11v9h89l-2 2-88-1-165-1z" fill="#F16485"/>
<path transform="translate(1883,1526)" d="m0 0h165v165h-16l-19-3-15-4-16-6-16-8-14-9-14-11-15-15-13-17-9-16-7-15-6-18-4-20-1-9z" fill="#F16485"/>
<path transform="translate(599,255)" d="m0 0h13l21 3 21 6 17 7 18 10 12 9 14 12 12 13 12 17 9 16 7 17 6 21 3 20v14h-165z" fill="#FEFEFE"/>
<path transform="translate(1287,1615)" d="m0 0h165v165h-10l-18-2-21-5-16-6-16-8-16-10-11-9-13-12-9-11-10-14-10-18-8-21-5-21-2-15z" fill="#FEFEFE"/>
<path transform="translate(58,1331)" d="m0 0h139v140h-139z" fill="#fff"/>
<path transform="translate(1540,511)" d="m0 0 139 1-6 7-132 132-7-6-132-132v-1z" fill="#6DB0E1"/>
<path transform="translate(1852,569)" d="m0 0h139v139h-139z" fill="#fff"/>
<path transform="translate(116,1074)" d="m0 0h22l13 3 16 8 9 7 9 9 8 13 5 13 2 10v18l-3 14-5 12-9 13-9 9-14 9-14 5-10 2h-18l-16-4-14-7-9-7-9-9-7-11-5-11-3-13v-22l4-15 8-15 10-12 12-9 15-7z" fill="#F16922"/>
<path transform="translate(117,55)" d="m0 0h21l15 4 14 7 9 7 8 8 9 14 5 13 2 10v19l-4 16-7 14-8 10-7 7-14 9-13 5-10 2h-20l-15-4-16-8-12-11-7-8-8-15-4-15v-23l4-15 8-15 9-10 10-9 16-8z" fill="#F16921"/>
<path transform="translate(372,1074)" d="m0 0h20l16 4 14 7 11 9 8 9 8 14 4 12 2 13v9l-3 16-5 13-8 12-12 12-11 7-12 5-14 3h-15l-15-3-14-6-11-8-10-10-7-11-5-11-3-12v-23l4-15 6-12 7-9 5-6 12-9 15-7z" fill="#fff"/>
<path transform="translate(631,1583)" d="m0 0h11l16 3 12 5 10 6 10 9 8 10 7 14 4 15v22l-4 15-6 12-10 13-11 9-10 6-15 5-5 1h-22l-15-4-14-7-10-8-9-10-8-14-5-16-1-8v-10l3-16 5-13 8-12 12-12 13-8 14-5z" fill="#262C5E"/>
<path transform="translate(1916,1834)" d="m0 0h10l16 3 13 5 12 8 11 11 7 11 5 11 3 11 1 16-2 14-5 14-7 12-10 11-13 9-13 6-13 3h-19l-16-4-16-8-12-11-7-8-8-16-4-15v-21l4-15 7-14 8-10 10-9 14-8 11-4z" fill="#F16921"/>
<path transform="translate(1911,820)" d="m0 0h20l16 4 14 7 11 9 8 9 8 14 4 12 2 14-1 16-5 16-7 13-11 12-10 8-15 7-11 3-16 1-14-2-14-5-12-7-12-11-7-10-6-12-4-16v-20l4-16 8-15 9-10 7-7 14-8 11-4z" fill="#F16922"/>
<path transform="translate(1659,820)" d="m0 0h17l14 3 12 5 10 7 10 9 8 11 6 13 3 11 1 7v12l-3 16-6 14-8 11-10 10-11 7-11 5-12 3h-23l-15-4-15-8-12-11-8-10-6-12-4-14-1-7v-11l3-16 5-12 7-11 9-10 11-8 12-6z" fill="#fff"/>
<path transform="translate(1403,313)" d="m0 0h21l16 4 15 8 12 10 9 12 6 13 4 16v18l-4 16-8 16-11 12-8 7-16 8-16 4h-18l-17-4-15-8-13-11-10-14-6-15-2-9v-22l4-15 7-14 9-11 9-8 12-7 15-5z" fill="#262C5E"/>
<path transform="translate(320,66)" d="m0 0h124v123h-124z" fill="#262C5E"/>
<path transform="translate(1606,1845)" d="m0 0h123v123h-123z" fill="#262C5E"/>
<path transform="translate(1288,4)" d="m0 0h244v1l-31 3-24 5-20 6-20 8-16 8-16 9-17 12-10 8-10 9-9 8-7 8-12 14-13 19-11 19-9 19-9 25-6 25-3 20-1 11h-1v-236z" fill="#fff"/>
<path transform="translate(1287,1797)" d="m0 0h1l3 26 5 23 9 27 9 20 9 17 10 15 9 12 11 13 12 13 8 7 12 10 17 12 15 9 15 8 25 10 20 6 23 5 31 3v1h-243l-1-1z" fill="#fff"/>
<path transform="translate(763,1803)" d="m0 0h1v235h-238v-1l26-3 27-6 26-9 24-11 17-10 17-12 11-9 10-9 6-5 7-8 10-11 14-19 13-22 10-21 9-25 6-24 3-20z" fill="#fff"/>
<path transform="translate(526)" d="m0 0h238v234h-1l-3-23-5-23-9-27-8-18-10-19-10-15-9-12-11-13-11-12-8-7-13-11-17-12-15-9-17-9-20-8-18-6-27-6-26-3z" fill="#fff"/>
<path transform="translate(510,255)" d="m0 0h89v114l-4-1-15-8-21-8-21-5-28-3z" fill="#F26A21"/>
<path transform="translate(1287,1526)" d="m0 0h89l2 24 5 23 7 19 8 16 3 5v2h-114z" fill="#F26A21"/>
<path transform="translate(650,421)" d="m0 0h114v89h-88l-1-1-2-22-4-20-7-21-8-16-4-7z" fill="#F26A21"/>
<path transform="translate(1452,1666)" d="m0 0 5 2 16 8 15 6 18 5 20 3 14 1v89h-88z" fill="#F26A21"/>
<path transform="translate(1287,1628)" d="m0 0h1l4 25 6 20 9 20 10 16 10 13 12 13 11 9 14 10 18 10 21 8 21 5 12 2v1h-149z" fill="#F16921"/>
<path transform="translate(614,255)" d="m0 0h150v151h-1l-3-20-6-21-7-17-10-18-9-12-12-14-12-11-17-12-16-9-17-7-21-6-19-3z" fill="#F16921"/>
<path transform="translate(630,1628)" d="m0 0h14l10 5 7 7 4 10v11l-3 9-8 9-8 4-4 1h-11l-9-4-8-7-5-10v-14l4-9 5-6 9-5z" fill="#F9FCFD"/>
<path transform="translate(1408,357)" d="m0 0h12l9 4 8 7 4 8 1 4v10l-4 10-7 8-8 4-4 1h-11l-9-4-8-7-4-7-1-4v-13l5-10 7-7z" fill="#F9FBFD"/>
<path transform="translate(120,100)" d="m0 0h14l9 4 6 5 5 9 1 3v13l-4 9-5 6-6 4-6 2h-13l-8-3-8-7-5-10v-15l5-10 8-7z" fill="#262C5E"/>
<path transform="translate(1916,1879)" d="m0 0h11l9 4 8 7 4 8 1 4v10l-4 10-5 6-6 4-6 2h-14l-10-5-7-8-3-7-1-9 2-9 6-9 9-6z" fill="#262C5E"/>
<path transform="translate(376,615)" d="m0 0h10l8 4 6 7 2 6v8l-4 9-6 5-8 3-10-1-8-5-5-7-1-4v-9l4-8 7-6z" fill="#F16485"/>
<path transform="translate(121,1890)" d="m0 0h13l8 5 4 5 2 5v11l-4 8-6 5-4 2h-13l-7-4-6-7-2-7 1-9 4-7 6-5z" fill="#F16485"/>
<path transform="translate(1919,110)" d="m0 0 9 1 8 5 5 7 1 3v10l-4 8-7 6-5 2h-10l-8-4-6-7-2-7 1-10 6-9 7-4z" fill="#F16485"/>
<path transform="translate(1663,1380)" d="m0 0h11l8 4 5 6 3 9-2 11-7 8-6 3h-13l-8-5-5-7-1-3v-11l4-8 8-6z" fill="#F16485"/>
<path transform="translate(663,328)" d="m0 0h11l8 4 6 8 1 3v10l-4 8-7 6-5 2h-9l-10-5-5-8-1-3v-10l4-8 6-5z" fill="#262C5E"/>
<path transform="translate(1380,1666)" d="m0 0 9 1 7 4 5 6 2 6v8l-4 9-8 6-3 1h-12l-8-5-4-5-2-5v-10l4-8 7-6z" fill="#262C5E"/>
</svg>
